<svg xmlns="http://www.w3.org/2000/svg" xmlns:xlink="http://www.w3.org/1999/xlink" viewBox="0 0 400 300" width="406" height="306" class="illustration styles_illustrationTablet__1DWOa"><defs><linearGradient id="linear-gradient" x1="188.49" y1="236.99" x2="150.77" y2="259.52" gradientUnits="userSpaceOnUse"><stop offset="0" stop-color="gray"></stop><stop offset="1" stop-color="#fff"></stop></linearGradient></defs><title>a</title><g style="isolation: isolate;"><g id="Layer_2" data-name="Layer 2"><path d="M295.53,223.37a4.37,4.37,0,0,1,.08,7.43L195.28,287.11A13.29,13.29,0,0,1,182.1,287L87.45,232.1a4.79,4.79,0,0,1,0-8.29l100.69-58a6.88,6.88,0,0,1,6.85,0Z" fill="#2c8986"></path><path d="M179,223.49c-14.73,8.59-25.26,14.36-47.92,27.3,17.15,10.42,30.44,20,32.37,21.14L214.35,242C210.39,240,197.31,232.56,179,223.49Z" fill="url(#linear-gradient)" style="mix-blend-mode: multiply;"></path><path d="M319.36,205.72V94a4.55,4.55,0,0,0-2.26-4c-9.28-5.39-114.42-64.94-134.83-76.5a2.12,2.12,0,0,0-1.37-.25.11.11,0,0,0-.08,0,44.07,44.07,0,0,0-4.75,2.36,4.52,4.52,0,0,0,3,.81v8.93l.26,105.82c0,2.12,88,50.62,89.83,51.68l44.36,25.25c-1.44,1.1-2.23,2.85-1.35,3,1.18.22,3.74-1.24,5.14-2.11a3.44,3.44,0,0,0,.95-.61h0A3.35,3.35,0,0,0,319.36,205.72Z" fill="#68e1fd"></path><path d="M319.36,205.72V94a4.55,4.55,0,0,0-2.26-4c-9.28-5.39-114.42-64.94-134.83-76.5a2.12,2.12,0,0,0-1.37-.25.11.11,0,0,0-.08,0,44.07,44.07,0,0,0-4.75,2.36,4.52,4.52,0,0,0,3,.81v8.93l.26,105.82c0,2.12,88,50.62,89.83,51.68l44.36,25.25c-1.44,1.1-2.23,2.85-1.35,3,1.18.22,3.74-1.24,5.14-2.11a3.44,3.44,0,0,0,.95-.61h0A3.35,3.35,0,0,0,319.36,205.72Z" fill="#3795a5"></path><path d="M175.23,17.2a2.18,2.18,0,0,1,3.24-1.75C198.89,27,304,86.56,313.31,91.95a4.55,4.55,0,0,1,2.26,4V207.61c.17,2.28-2.41,4.39-4.51,3.19l-45.74-26c-1.84-1.05-89.83-49.56-89.83-51.68l-.26-105.82Z" fill="#68e1fd"></path><polygon points="189.04 87.8 189.04 129.5 241.15 159.58 241.15 117.84 189.04 87.8" fill="#fff"></polygon><polygon points="243.89 119.76 243.89 161.46 295.99 191.54 295.99 149.81 243.89 119.76" fill="#fff"></polygon><polygon points="189.04 42.02 189.04 83.72 241.15 113.8 241.15 72.06 189.04 42.02" fill="#fff"></polygon><polygon points="243.89 73.14 243.89 114.84 295.99 144.92 295.99 103.19 243.89 73.14" fill="#fff"></polygon><ellipse cx="243.89" cy="63.08" rx="2.29" ry="3.87" transform="translate(-8.03 63.67) rotate(-14.64)" fill="#34323d"></ellipse><ellipse cx="215.1" cy="75.47" rx="6.04" ry="8.87" transform="translate(-12.85 76.49) rotate(-19.59)" fill="#3795a5"></ellipse><path d="M200.48,90.32s3.41-11.62,12.1-9.09,14.17,9.74,14.17,24.45" fill="#3795a5"></path><ellipse cx="269.24" cy="106.51" rx="6.04" ry="8.87" transform="translate(-20.13 96.45) rotate(-19.59)" fill="#3795a5"></ellipse><path d="M254.63,121.36s3.41-11.62,12.1-9.09S280.9,122,280.9,136.73" fill="#3795a5"></path><ellipse cx="213.12" cy="119.86" rx="6.04" ry="8.87" transform="translate(-27.85 78.4) rotate(-19.59)" fill="#3795a5"></ellipse><path d="M198.51,134.71s3.41-11.62,12.1-9.09,14.17,9.74,14.17,24.45" fill="#3795a5"></path><ellipse cx="265.62" cy="150.68" rx="6.04" ry="8.87" transform="translate(-35.15 97.79) rotate(-19.59)" fill="#3795a5"></ellipse><path d="M251,165.54s3.41-11.62,12.1-9.09,14.17,9.74,14.17,24.45" fill="#3795a5"></path><path d="M191.14,189.65c-4.31-3-9.38-4.66-14.86-3.45-5.84,1.28-10.89,5-16.84,5.85-.94.14-4.69-.1-5.27.44-16.55,15.66,29.71,14,29.71,14,4.49-3.68,8.72-7.3,13.17-11C195.71,192.45,193.45,191.27,191.14,189.65Z" fill="#f8997c"></path><path d="M169.36,212.36l-1.64,47.25c-.06,1.79,2.72,1.79,2.78,0l1.64-47.25C172.21,210.56,169.43,210.57,169.36,212.36Z" fill="#f8997c"></path><path d="M204.05,237.64q-12.64-12.37-24.15-25.81c-1.17-1.36-3.13.61-2,2q11.5,13.43,24.15,25.81C203.36,240.86,205.34,238.89,204.05,237.64Z" fill="#f8997c"></path><path d="M159.71,208q-9.81,18.52-18.48,37.6c-.74,1.62,1.66,3,2.4,1.41q8.67-19.08,18.48-37.6C163,207.81,160.55,206.4,159.71,208Z" fill="#f8997c"></path><path d="M201.24,178.48s6,1.23,7.37,2.58,3.56,7,2.95,8.71-2.33-1-3.07-2.08a36.59,36.59,0,0,0-2.82-3.28,10.49,10.49,0,0,1-5.83-.77" fill="#fcbf81"></path><path d="M203.25,229.65c.87-.89,1.43-1.87,1.13-2.84-.53-1.74-2.89-2.44-4.5-2.35s-3.29.91-4.92,1.4a12.24,12.24,0,0,1-5.34.66,1.19,1.19,0,0,1-.75-.41,3,3,0,0,1-2.16-2l-5.35-1.92S180,233.51,180,234.31c.4,6.1,9.51,2.62,9.51,2.62s.32-2.76.41-3.13,3.58.71,5,.49a6.32,6.32,0,0,0,1.87-.87c1.08-.59,2.13-1.23,3.18-1.87S202.16,230.3,203.25,229.65Z" fill="#e55600"></path><path d="M183.29,187.91c-2,.2-4,.46-6,.74q1.25,19.26,2.77,38.49c5.2,2.13,7.31,1.14,10.54-2.16.61-12.24,1.69-25.06,1.65-37.42C189.25,187.69,186.27,187.82,183.29,187.91Z" fill="#34323d"></path><path d="M161.65,184.39s-.86,14.05,6.2,17.19,21.55,1.57,28.67-2.61a77,77,0,0,1,11.56-5.77s1.83-6.15-2.61-8.81-14.26-5.94-23,0" fill="#34323d"></path><path d="M192.63,145.8a11.48,11.48,0,0,1,.78-1.53.16.16,0,0,0,.05.08.2.2,0,0,0,.37.06l.57-.86a1,1,0,0,0,0,.34.86.86,0,0,0,.95.67.85.85,0,0,0,.76-1.07l.26-.3a.85.85,0,0,0,0,.26.75.75,0,0,0,1.23.31c.1-.08.19-.18.28-.27a.63.63,0,0,0,.5,0,19.26,19.26,0,0,0,2.15-.88.33.33,0,0,1-.11-.53,21.5,21.5,0,0,1,2.61-1.81.31.31,0,0,1,.11-.06l.05-.09a2.94,2.94,0,0,0-.14-2.1,2.3,2.3,0,0,0,.47-1.95.35.35,0,0,1-.2-.08,1.59,1.59,0,0,1-.33-.39,2.23,2.23,0,0,1-.37-.67.3.3,0,0,1,.11-.34c-.34-.45-.74-.88-1.09-1.28a8.6,8.6,0,0,0,1.17-4.83.74.74,0,0,0-1.37-.35,15.57,15.57,0,0,0-.91,1.65.62.62,0,0,0-.21.23,91.19,91.19,0,0,1-4.81,8.65c-.3.47-4,5.51-3.54,5.63C191.94,144.52,188.94,151.43,192.63,145.8Zm2.16-2.13s0,0,0-.05a.2.2,0,0,0,.3,0l0,0a.76.76,0,0,0,.63.12.48.48,0,0,1-1-.06Z" fill="#fcbf81"></path><path d="M193,144.19a8,8,0,0,0,2-2.24,1.54,1.54,0,0,1,2.13-.6,9,9,0,0,0,.09-1.22c0-2.08,3.27-2.11,3.23,0a7.86,7.86,0,0,1-1.25,4.62,13.24,13.24,0,0,1-3.52,3.11,1.66,1.66,0,0,1-2.46-1.25l-.14-.11A1.63,1.63,0,0,1,193,144.19Z" fill="#fcbf81"></path><path d="M198.21,145.43a6.55,6.55,0,0,0,2.74-3.83.18.18,0,0,0,.26.06l1.29-.87a3,3,0,0,0,.73-.59c.47-.6,0-1.29-.19-1.91a.2.2,0,0,0-.07-.09l.18-.3a2.76,2.76,0,0,0,.49-1.6c-.09-.56-.62-.93-.87-1.41a1.25,1.25,0,0,0-.75-1.37c-.69-.31-1.07.21-1.44.72q-1.19,1.62-2.25,3.33c-.14.22.22.42.35.2.39-.62.78-1.23,1.19-1.83a7.61,7.61,0,0,1,1.3-1.82c1.44-.83,1.16,1.16.93,1.67-.14.3-.31.58-.48.87l-1.09,1.92a.19.19,0,0,0,0,0,.18.18,0,0,0,0,.16,5.68,5.68,0,0,1-2.49,6.31C197.78,145.23,198,145.58,198.21,145.43Zm2.93-6.57a.18.18,0,0,0-.21,0l0-.13a15.36,15.36,0,0,0,1.76-3.29c.1.13.2.25.3.39a1.23,1.23,0,0,1,.07,1.36C202.77,137.82,202,139.36,201.13,138.86Zm-.13,2.46a5.65,5.65,0,0,0,0-2.08c.69.34,1.28-.11,1.71-.68a4.46,4.46,0,0,1,.29.8.84.84,0,0,1-.43.9C202.06,140.63,201.52,141,201,141.31Z" fill="#34323d"></path><path d="M175.12,151.95s9.43.45,11.89-1.81,6-9.37,6-9.37,6.5,4.18,6.82,6.58-6.79,14-9.95,14.81" fill="#ba3e00"></path><path d="M219.56,238.45c.87-.89,1.43-1.87,1.13-2.84-.53-1.74-2.89-2.44-4.5-2.35s-3.29.91-4.92,1.4a12.24,12.24,0,0,1-5.34.66,1.19,1.19,0,0,1-.75-.41,3,3,0,0,1-2.16-2L197.66,231s-1.37,11.31-1.32,12.1c.4,6.1,9.51,2.62,9.51,2.62s.32-2.76.41-3.13,3.58.71,5,.49a6.32,6.32,0,0,0,1.87-.87c1.08-.59,2.13-1.23,3.18-1.87S218.48,239.1,219.56,238.45Z" fill="#e55600"></path><path d="M199,184.73c-1.84-.87-3.77-.78-6-.77.31,4.52.14,6.15.42,10.67l.08,1.2c.86,13.38,1.84,26.75,2.88,40.11,5.2,2.13,7.31,1.14,10.54-2.16.72-14.24,2.06-29.28,1.54-43.45C205.43,187.36,202.76,186.52,199,184.73Z" fill="#34323d"></path><path d="M161.52,181.48c0,.35.07,1.51.12,2.91,2.92,3.85,6.5,6.11,12.11,5.94,4.54-.13,8.33-2.12,11.89-4.57-.44-8.23-1.77-22.28-3.85-32.08-.18-.83-2.33-1.38-3-1.73-1.48-.81-.61-2.2-2.06-3.07a49.7,49.7,0,0,0-6.55-3.19h-.06c-3.62-.05-9.85,2.73-10.22,7.57-.57,7.45.25,11.93.83,19.36C161,175.62,161.27,178.57,161.52,181.48Z" fill="#e55600"></path><path d="M174.11,131.6c.48.12,4.49,9.36,2.92,15s-11.1-.16-13.5-4.43S165.1,129.26,174.11,131.6Z" fill="#fcbf81"></path><path d="M174,132.89s0,3.05-2.66,4-4.88,1.65-4.74,2.88,4.82-.17,4.84,2.65a21,21,0,0,1-.76,5.63c-.29,1.38-8.3-2.86-10.94-10.09s4-9.15,4.29-9.2.92-2,4.16-2.72,4.15.55,4.15.55a3.93,3.93,0,0,1,4.73.51c3,2.37,2.23,6.7-1.15,8.46Z" fill="#34323d"></path><path d="M175.64,161.53s9.91,18.1,15.39,19.66a67.37,67.37,0,0,0,12,2s.68-5,0-7.18c0,0-8.77-3.95-9.63-6.32s-8.25-19-16.64-20.76" fill="#e55600"></path><path d="M184.76,175.6c-.61-.78-7.48-8.56-7.48-8.56L185.54,184Z" fill="#34323d"></path><path d="M196.42,195.16A20.89,20.89,0,0,1,186,202.83c-5.89,1.79-14.46.95-17.55-5.21-5.63-11.21-.34-25.23-6.29-36.13a10.93,10.93,0,0,0-6.9-5.67c-3.86-.84-6.5,2.05-7.9,5.46-2.51,6.11-2.42,13.73-2.29,20.23a110.49,110.49,0,0,0,1.14,15.72s3.6,21.84,31.7,16a42.24,42.24,0,0,0,13.8-5.11,19,19,0,0,0,5.63-5C199,200.65,197.9,197.68,196.42,195.16Z" fill="#68e1fd"></path><path d="M103.07,203.07a25.56,25.56,0,0,0-5.34,17.58c.71,10.26,6.49,13.24,6.49,13.24l6.88.38s8.18-2.67,7.11-16c-1-12.53-5.08-15.47-5.08-15.47" fill="#68e1fd"></path><ellipse cx="108.14" cy="203.07" rx="5.06" ry="1.79" fill="#003b94"></ellipse><ellipse cx="108.14" cy="232.8" rx="5.06" ry="1.79" fill="#68e1fd"></ellipse><path d="M106.06,203.61l-6.13-35.16c-.13-.77-1.3-.44-1.17.32l6.13,35.16C105,204.7,106.19,204.38,106.06,203.61Z" fill="#007f68"></path><path d="M107.17,203.73a1.46,1.46,0,0,1,.56,0,1.27,1.27,0,0,1,.63.38q.73-14.73.26-29.48c0-.78-1.23-.78-1.21,0Q107.88,189.19,107.17,203.73Z" fill="#007f68"></path><path d="M120.95,169.61a323.29,323.29,0,0,0-11.84,33.78.61.61,0,0,0,1.17.32,323.28,323.28,0,0,1,11.84-33.78C122.41,169.22,121.24,168.9,120.95,169.61Z" fill="#007f68"></path><path d="M101.24,183s-.66-.08-3.55-3.12.76-5.33-.91-8.75.69-7.92,1.22-11.34a15.88,15.88,0,0,0,2.54,6.7c2.18,3.12,3.4,5.94,3.17,9.9a35,35,0,0,1-1.28,7.38" fill="#007f68"></path><path d="M107.44,188.38s-.62-.24-2.69-3.9,2-5,1.24-8.71,2.59-7.51,3.94-10.71a15.88,15.88,0,0,0,.84,7.12c1.36,3.56,1.85,6.58.67,10.37a35,35,0,0,1-3,6.85" fill="#007f68"></path><path d="M116.08,182s-.56-.36-1.83-4.36,3-4.46,3-8.28,4.07-6.82,6-9.67a15.88,15.88,0,0,0-.64,7.14c.6,3.76.47,6.82-1.47,10.29a35,35,0,0,1-4.38,6.08" fill="#007f68"></path><path d="M326.77,72.25V103a2.69,2.69,0,0,1-4,2.33L291.15,87.1a2.69,2.69,0,0,1-1.35-2.33V54a2.69,2.69,0,0,1,4-2.33l31.58,18.23A2.69,2.69,0,0,1,326.77,72.25Z" fill="#8ea3ff"></path><polygon points="289.8 79.15 289.8 93.28 299.37 87.8 289.8 79.15" fill="#8ea3ff"></polygon><path d="M181.67,74.62v30.74a2.69,2.69,0,0,1-4,2.33L146.06,89.47a2.69,2.69,0,0,1-1.35-2.33V56.39a2.69,2.69,0,0,1,4-2.33l31.58,18.23A2.69,2.69,0,0,1,181.67,74.62Z" fill="#8ea3ff"></path><polyline points="174.16 105.69 187.7 113.15 180.93 97.39" fill="#8ea3ff"></polyline><path d="M296.12,68.64,319.53,81.9A1.5,1.5,0,0,0,321,79.31L297.64,66.05a1.5,1.5,0,0,0-1.51,2.59Z" fill="#f2f2f2"></path><path d="M295.53,76.51l23.41,13.25a1.5,1.5,0,0,0,1.51-2.59L297,73.92a1.5,1.5,0,0,0-1.51,2.59Z" fill="#f2f2f2"></path><path d="M149.92,69.72,175.6,84.25a1.5,1.5,0,0,0,1.51-2.59L151.43,67.13a1.5,1.5,0,0,0-1.51,2.59Z" fill="#f2f2f2"></path><path d="M149.27,78.34l25.68,14.54a1.5,1.5,0,0,0,1.51-2.59L150.78,75.75a1.5,1.5,0,0,0-1.51,2.59Z" fill="#f2f2f2"></path></g></g></svg>